<svg xmlns="http://www.w3.org/2000/svg" width="26.006" height="26" viewBox="0 0 26.006 26"><defs><style>.a,.e{fill:none;}.a,.b,.d,.e{stroke:#595959;}.a,.b,.d{stroke-miterlimit:10;}.b{fill:#fff;}.b,.e{stroke-linecap:round;}.c{fill:#8ce8dd;}.d{fill:#d4f9f5;}</style></defs><g transform="translate(0.506 0.5)"><g transform="translate(0)"><ellipse class="a" cx="12.5" cy="11.859" rx="12.5" ry="11.859" transform="translate(0 1.282)"/><path class="b" d="M7.8,2.4S5.851,0,4.805,0,.953,3.158.316,4.377.953,7.068.953,7.068A4.668,4.668,0,0,0,4.805,8.216C6.882,7.712,7,4.377,7,4.377" transform="translate(-0.103)"/><path class="b" d="M-31.077,2.4S-29.132,0-28.087,0s3.852,3.158,4.49,4.377-.637,2.691-.637,2.691a4.668,4.668,0,0,1-3.852,1.147c-2.076-.5-2.192-3.838-2.192-3.838" transform="translate(48.103)"/><path class="c" d="M0,3.208S1.286.121,3.774.007s3.918,3,3.918,3S5.872.832,3.774,1.015A6.54,6.54,0,0,0,0,3.208Z" transform="translate(8.333 10.253)"/><path class="d" d="M4.455,7.051c1.845,0,4.519-.5,4.519-2.451S6.676,0,4.455,0,0,2.653,0,4.6,2.61,7.051,4.455,7.051Z" transform="translate(7.692 10.256)"/><line class="e" y2="1.238" transform="translate(7.797 9.406)"/><line class="e" y2="1.238" transform="translate(16.213 9.406)"/><line class="e" y2="0.99" transform="translate(13.738 13.614)"/><line class="e" y2="0.99" transform="translate(10.52 13.614)"/></g></g></svg>