<svg xmlns="http://www.w3.org/2000/svg" width="28.825" height="28.677" viewBox="0 0 28.825 28.677"><defs><style>.a{fill:#d4f9f5;}.b,.c,.d,.e{fill:none;stroke-linecap:round;}.b,.c,.d{stroke:#595959;}.b,.c,.e{stroke-linejoin:round;}.b,.e{stroke-miterlimit:10;}.e{stroke:#00baa4;stroke-width:0.7px;}</style></defs><g transform="translate(0.64 0.64)"><ellipse class="a" cx="4.486" cy="4.486" rx="4.486" ry="4.486" transform="translate(16.829 15.979)"/><path class="b" d="M2.847,1.032,3.3.823M1.338,2.354l.4-.48M.544,4.154l.222-.769M4.518.523A4.335,4.335,0,0,1,4.98.5,4.518,4.518,0,1,1,.532,5.809" transform="translate(16.716 15.186)"/><path class="c" d="M0,.971.3,0l.9.443" transform="matrix(0.985, 0.174, -0.174, 0.985, 17.019, 20.688)"/><path class="b" d="M12.22,17.026,17.1,15.853V9.65" transform="translate(-2.392 -0.981)"/><path class="c" d="M0,8.755A11.265,11.265,0,1,1,8.469,22.249" transform="matrix(-0.259, -0.966, 0.966, -0.259, 5.759, 27.324)"/><line class="d" x2="1.76" transform="translate(2.571 13.486)"/><line class="d" x2="1.76" transform="translate(23.105 13.486)"/><line class="d" x2="1.76" transform="translate(14.011 2.632) rotate(90)"/><line class="d" x2="1.76" transform="translate(21.963 6.027) rotate(140)"/><line class="d" x2="1.76" transform="translate(14.011 23.165) rotate(90)"/><line class="d" x2="1.76" transform="translate(6.234 19.226) rotate(140)"/><line class="d" x2="1.76" transform="translate(7.73 6.803) rotate(-132)"/><g transform="translate(20.984 18.151)"><path class="e" d="M5,26.958a.816.816,0,1,0,.816-.816h0a.816.816,0,1,1,.816-.816" transform="translate(-5 -23.937)"/><line class="e" y1="0.573" transform="translate(0.816 3.838)"/><line class="e" y1="0.573" transform="translate(0.816 0)"/></g></g></svg>