<svg xmlns="http://www.w3.org/2000/svg" width="58" height="45.22" viewBox="0 0 58 45.22"><defs><style>.a,.d,.f{fill:none;}.a,.b{stroke:#595959;}.a,.b,.c,.d{stroke-linecap:round;}.a,.b,.c{stroke-linejoin:round;}.b,.c{fill:#d4f9f5;}.c,.d{stroke:#00baa4;}.e{stroke:none;}</style></defs><g transform="translate(-886.5 -847.456)"><g transform="translate(569.998 276.322)"><path class="a" d="M353.707,574.372a.911.911,0,0,0-.3-.18l-6.961-2.46a.917.917,0,0,0-1.171.541.858.858,0,0,0-.054.264c0,.2-.3,4.784-4.939,4.856-4.665-.072-4.957-4.657-4.967-4.856a.91.91,0,0,0-.962-.855.935.935,0,0,0-.254.05l-6.951,2.487a.919.919,0,0,0-.3.181l-9.558,8.428a.9.9,0,0,0-.033,1.278l.033.033,7.61,7.605v20.8a.909.909,0,0,0,.915.9H354.8a.91.91,0,0,0,.915-.9v-20.8l7.609-7.605a.9.9,0,0,0,.033-1.278l-.033-.033Zm-28.8,17.735v-5.873m30.787,5.873v-5.873" transform="translate(0 0)"/><g transform="translate(338.678 576.982)"><path class="b" d="M374.214,596.422l-18.861,18.539a2.516,2.516,0,0,1-3.518,0l-11.852-11.646a2.418,2.418,0,0,1-.007-3.453l.007-.007,18.827-18.5a1.259,1.259,0,0,1,1.024-.349l13.028,1.494a1.232,1.232,0,0,1,1.1,1.152l.617,11.848A1.206,1.206,0,0,1,374.214,596.422Z" transform="translate(-339.255 -576.982)"/><path class="a" d="M368.829,587.786c-2.459,0-4.452-2.42-4.452-5.4s1.993-5.4,4.452-5.4,4.453,2.42,4.453,5.4" transform="translate(-339.255 -576.982)"/></g></g><g transform="translate(884.888 -502.465) rotate(45)"><g class="c" transform="translate(1004.223 946.251)"><circle class="e" cx="2.257" cy="2.257" r="2.257"/><circle class="f" cx="2.257" cy="2.257" r="1.757"/></g><g class="c" transform="translate(997 939.931)"><circle class="e" cx="2.257" cy="2.257" r="2.257"/><circle class="f" cx="2.257" cy="2.257" r="1.757"/></g><line class="d" x1="7.242" y2="11.892" transform="translate(999.42 939.48)"/></g></g></svg>