<svg xmlns="http://www.w3.org/2000/svg" width="72.146" height="40" viewBox="0 0 72.146 40"><defs><style>.a{fill:#fff;}.a,.b,.d{stroke:#595959;}.b{fill:#595959;stroke-width:0.2px;}.c{fill:#d4f9f5;stroke:#fff;stroke-width:3px;}.d,.f{fill:none;}.e{stroke:none;}</style></defs><g transform="translate(-1333 -843)"><g class="a" transform="translate(1333 843)"><rect class="e" width="59" height="40" rx="5"/><rect class="f" x="0.5" y="0.5" width="58" height="39" rx="4.5"/></g><path class="b" d="M12.489.27a2.116,2.116,0,0,0-1.958,2.24V7.289a.465.465,0,1,0,.921,0V2.51a1.12,1.12,0,0,1,1.037-1.187A1.12,1.12,0,0,1,13.526,2.51V14.822c0,.041,0,.082-.007.123a1.044,1.044,0,0,1-.971,1.076.944.944,0,0,1-.808-.495.066.066,0,0,1-.013-.026L4.184,1.524A2.128,2.128,0,0,0,2.468.27,2.116,2.116,0,0,0,.51,2.51v9.283a2.115,2.115,0,0,0,1.958,2.24A2.113,2.113,0,0,0,4.426,11.8l.01-4.59a.5.5,0,0,0-.454-.536H3.975a.5.5,0,0,0-.46.521l-.01,4.6a1.116,1.116,0,0,1-1.037,1.183,1.119,1.119,0,0,1-1.037-1.183V2.51A1.12,1.12,0,0,1,2.468,1.323c.566,0,.908.7.911.707s.01.019.013.03l7.55,13.99a2.3,2.3,0,0,0,.127.2,1.955,1.955,0,0,0,.46.473,1.612,1.612,0,0,0,.827.331c.016,0,.176.011.2.011a2.046,2.046,0,0,0,1.9-2.17V2.51A2.117,2.117,0,0,0,12.489.27Z" transform="translate(1338.071 847.985)"/><g class="c" transform="translate(1381.349 852.975)"><circle class="e" cx="10.006" cy="10.006" r="10.006"/><circle class="f" cx="10.006" cy="10.006" r="11.506"/></g><g transform="translate(-124.147 78.22) rotate(-3)"><g class="d" transform="translate(1457.987 859.229) rotate(-30)"><circle class="e" cx="10.242" cy="10.242" r="10.242"/><circle class="f" cx="10.242" cy="10.242" r="9.742"/></g><line class="d" x2="19.978" transform="translate(1463.226 867.951) rotate(-30)"/></g></g></svg>