<svg xmlns="http://www.w3.org/2000/svg" width="59" height="40" viewBox="0 0 59 40"><defs><style>.a{fill:#fff;}.a,.d{stroke:#595959;}.b{fill:#75e7d9;}.c{fill:#d4f9f5;}.d{fill:#595959;stroke-width:0.2px;}.e{stroke:none;}.f{fill:none;}</style></defs><g transform="translate(-354 -856)"><g class="a" transform="translate(354 856)"><rect class="e" width="59" height="40" rx="5"/><rect class="f" x="0.5" y="0.5" width="58" height="39" rx="4.5"/></g><g transform="translate(386.977 878.811)"><ellipse class="b" cx="6.367" cy="6.368" rx="6.367" ry="6.368"/><ellipse class="c" cx="6.367" cy="6.368" rx="6.367" ry="6.368" transform="translate(9.096)"/></g><path class="d" d="M12.489.27a2.116,2.116,0,0,0-1.958,2.24V7.289a.465.465,0,1,0,.921,0V2.51a1.12,1.12,0,0,1,1.037-1.187A1.12,1.12,0,0,1,13.526,2.51V14.822c0,.041,0,.082-.007.123a1.044,1.044,0,0,1-.971,1.076.944.944,0,0,1-.808-.495.066.066,0,0,1-.013-.026L4.184,1.524A2.128,2.128,0,0,0,2.468.27,2.116,2.116,0,0,0,.51,2.51v9.283a2.115,2.115,0,0,0,1.958,2.24A2.113,2.113,0,0,0,4.426,11.8l.01-4.59a.5.5,0,0,0-.454-.536H3.975a.5.5,0,0,0-.46.521l-.01,4.6a1.116,1.116,0,0,1-1.037,1.183,1.119,1.119,0,0,1-1.037-1.183V2.51A1.12,1.12,0,0,1,2.468,1.323c.566,0,.908.7.911.707s.01.019.013.03l7.55,13.99a2.3,2.3,0,0,0,.127.2,1.955,1.955,0,0,0,.46.473,1.612,1.612,0,0,0,.827.331c.016,0,.176.011.2.011a2.046,2.046,0,0,0,1.9-2.17V2.51A2.117,2.117,0,0,0,12.489.27Z" transform="translate(359.071 860.985)"/></g></svg>