<svg xmlns="http://www.w3.org/2000/svg" width="62.692" height="42.718" viewBox="0 0 62.692 42.718"><defs><style>.a{fill:#fff;}.a,.b,.f{stroke:#595959;}.a,.b,.c,.f{stroke-linejoin:round;}.a,.b{fill-rule:evenodd;}.b,.d{fill:#d4f9f5;}.c,.e,.f{fill:none;stroke-linecap:round;}.c,.e{stroke:#00baa4;}.c{stroke-miterlimit:10;}</style></defs><g transform="translate(4.256 -9.966)"><g transform="translate(-3.667 10.579)"><g transform="translate(15 2.596)"><g transform="translate(0 0)"><g transform="translate(0 0)"><g transform="translate(0 12.482)"><path class="a" d="M15.043,7.591V29.168H54.349a3.141,3.141,0,0,0,3.141-3.141V7.591Z" transform="translate(-15.043 -2.64)"/><path class="b" d="M67.786.827c0,.182,0,.207,0,.526,0,.622,0,1.317-.006,2.065-.006,2.137-.011,4.279-.014,6.284-.007,4.432,0,7.842.007,8.914,2.531-.492,4.436-.088,5.668,1.225V2.072C72,.546,70.136.13,67.786.827Z" transform="translate(-30.959 -0.499)"/><g transform="translate(19.253 8.591)"><path class="c" d="M5,31.525a2.34,2.34,0,1,0,2.34-2.34v0a2.34,2.34,0,1,1,2.34-2.34" transform="translate(-5 -22.867)"/><line class="c" y1="1.643" transform="translate(2.34 10.997)"/><line class="c" y1="1.643" transform="translate(2.34 0)"/></g></g><g transform="translate(4.029)"><path class="a" d="M13.905,7.591V29.168h39.4a3.141,3.141,0,0,0,3.141-3.141V7.591Z" transform="translate(-13.905 -2.64)"/><path class="b" d="M66.764.827c0,.181,0,.207,0,.526,0,.622,0,1.317-.006,2.065-.006,2.137-.011,4.279-.014,6.284-.007,4.432,0,7.842.007,8.914,2.538-.492,4.448-.088,5.682,1.227V2.072C70.991.546,69.121.13,66.764.827Z" transform="translate(-29.857 -0.499)"/><g transform="translate(20.651 9.03)"><path class="c" d="M5,31.525a2.34,2.34,0,1,0,2.34-2.34v0a2.34,2.34,0,1,1,2.34-2.34" transform="translate(-5 -22.867)"/><line class="c" y1="1.643" transform="translate(2.34 10.997)"/><line class="c" y1="1.643" transform="translate(2.34 0)"/></g></g></g></g></g><g transform="translate(0 0)"><circle class="d" cx="14.55" cy="14.55" r="14.55" transform="translate(2.527 2.841)"/><g transform="translate(11.851 12.165)"><line class="e" y2="10.451" transform="translate(5.225 0)"/><line class="e" x2="10.451" transform="translate(0 5.225)"/></g><path class="f" d="M.436,18.408a14.824,14.824,0,1,1,4.929,7.851" transform="translate(0 5.153) rotate(-10)"/></g></g></g></svg>