<svg xmlns="http://www.w3.org/2000/svg" width="61.016" height="50.103" viewBox="0 0 61.016 50.103"><defs><style>.a,.b,.d,.e{fill:none;}.a,.b,.f{stroke:#707070;}.b,.d,.e{stroke-linecap:round;}.b,.e{stroke-linejoin:round;}.c{fill:#d4f9f5;stroke:#595959;}.c,.d,.e{stroke-miterlimit:10;}.d,.e{stroke:#00baa4;}.d{stroke-dasharray:0 6;}.f{fill:#fff;}</style></defs><g transform="translate(-1161.299 -878.5)"><path class="a" d="M1129.176,2844.256l5.835-6.046a4.606,4.606,0,0,1,3.373-2.251c2.478-.4,8.2-2.116,11.684-6.071s7.08-7.951,10.5-11.173,5.214-3.693,2.214-4.9-8.573,1.226-12.714,6.242-7.117-.652-7.2-1.341-.366-8.4.519-9.852,4.433-3.714,6.681-3.709" transform="translate(44 -1916)"/><path class="b" d="M1118,2833.586s9.507-7.311,11.054-9.472,3.73-12.276,4.8-14.413,5.669-5.191,5.669-5.191,4.244-3.281,6.335-3.743a23.5,23.5,0,0,1,5.9,0" transform="translate(44 -1916)"/><path class="b" d="M1132.055,2815.485c.188-.734,1.235-10.738,3.992-11.662s7.323-1.912,7.323-1.912" transform="translate(44 -1916)"/><g transform="translate(15 -106)"><g transform="translate(1178 985)"><ellipse class="c" cx="14.407" cy="14.387" rx="14.407" ry="14.387"/></g><g transform="translate(1181 988)"><ellipse class="d" cx="11.266" cy="11.251" rx="11.266" ry="11.251"/></g><g transform="translate(1190 993)"><path class="e" d="M5,31.525a2.34,2.34,0,1,0,2.34-2.34v0a2.34,2.34,0,1,1,2.34-2.34" transform="translate(-5 -22.867)"/><line class="e" y1="1.643" transform="translate(2.34 10.997)"/><line class="e" y1="1.643" transform="translate(2.34 0)"/></g></g><path class="f" d="M1155.976,2823.348c1.409-1.506,3.02-3.152,4.592-4.635,3.419-3.222,5.214-3.693,2.214-4.9-2.622-1.055-7.212.672-11.48,4.878" transform="translate(44 -1916)"/></g></svg>