<svg xmlns="http://www.w3.org/2000/svg" width="76.644" height="56.161" viewBox="0 0 76.644 56.161"><defs><style>.a,.d{fill:#d4f9f5;}.b,.e{fill:none;}.b,.c,.e{stroke:#595959;stroke-linejoin:round;}.b,.c,.d,.e{stroke-linecap:round;}.b,.c{stroke-miterlimit:10;}.c,.f{fill:#fff;}.d{stroke:#707070;}</style></defs><g transform="translate(0.039 0.152)"><path class="a" d="M1014.231,215a.449.449,0,0,0-.038-.146l-4.011-12.41-10.77-12.037,10-8.138c-9.776-14.731-22.4-5.72-22.4-5.72h0s-10.524-.128-9.06,17.9c.652,8.027,3.5,25.07,3.5,25.07l.024,0c.575,1.326,7.812,2.882,16.565,2.185C1007.1,220.977,1014.345,216.427,1014.231,215Z" transform="translate(-938.128 -166.369)"/><path class="b" d="M1006.988,179.14c-9.315-10.2-19.976-2.593-19.976-2.593h0s-10.524-.128-9.06,17.9c.652,8.027,3.5,25.07,3.5,25.07l.024,0c.575,1.326,7.812,2.882,16.565,2.185,9.055-.721,16.3-5.27,16.189-6.7a.449.449,0,0,0-.038-.146l-4.011-12.41" transform="translate(-938.128 -166.37)"/><path class="c" d="M117.413,405.587,87.9,400.64l-.639,2.238-1.628,14.87a13.642,13.642,0,0,0,.61,6.069,18.232,18.232,0,0,0,2.5,4.458,13.738,13.738,0,0,0,10.567,4.912c6.942-.018,13.221-5.084,14.071-11.973l.413-1.779,1.546.188c.165.019-.166,0,0,0,2.034,0,2.8-1.166,3.05-3.188.059-1.174.277-3.244-3.056-4.051Z" transform="translate(-81.614 -384.097)"/><path class="d" d="M15.847,8.215,33.7,12.372a3.876,3.876,0,0,1,3.386,4.766l-2.821,11.3-1.775,1.316,1.254-4.067c.267-2.145-.4-3.843-2.6-4.261L5.421,18.247C3.069,17.956,1.089,15.106.6,11.315.135,7.666,1.181,2.815,5.489.5c1.839,2.655,3.867,5.444,7.863,7.037A11.561,11.561,0,0,0,15.847,8.215Z" transform="translate(0)"/><g transform="translate(10.978 34.819)"><g transform="translate(0 0)"><path class="e" d="M242.349,819.62a4.728,4.728,0,0,0,4.5,4.947,5.067,5.067,0,0,0,5.742-3.986l.134-.965a1.442,1.442,0,0,0-.362-1.161,1.818,1.818,0,0,0-1.18-.593l-6.714-.733a1.921,1.921,0,0,0-1.307.322,1.527,1.527,0,0,0-.668,1.048l-.132.966C242.353,819.516,242.35,819.567,242.349,819.62Z" transform="translate(-242.344 -817.117)"/></g></g><g transform="translate(8.792 26.976)"><path class="e" d="M183.79,631.689A3.417,3.417,0,0,0,179,631.1" transform="translate(-179 -630.379)"/></g><g transform="translate(20.548 28.438)"><path class="e" d="M490.311,666.5a3.417,3.417,0,0,0-4.791-.588" transform="translate(-485.52 -665.191)"/></g><path class="f" d="M104.5,156.146s-5.276-3.511-4.181-8.559c0,0-1.9,4.184-1.476,6.048,0,0-4.477-5.667-3.524-10.715,0,0-3.741,8.356.13,12.107Z" transform="translate(-89.46 -136.71)"/><path class="c" d="M1028.335,389.177c-3.259,1.069-2.909,2.716-2.757,3.882.409,2,1.266,3.1,3.293,2.936.166-.013-.163.032,0,0l1.31-.22c1.137,8.535,8.825,13,15.746,12.469a13.892,13.892,0,0,0,1.692-.237,13.718,13.718,0,0,0,8.452-5.5,18.227,18.227,0,0,0,2.142-4.642,13.642,13.642,0,0,0,.127-6.1L1056.095,380l-3.953-4.719-24.642,3.685Z" transform="translate(-983.89 -359.753)"/><g transform="translate(57.425 33.876)"><g transform="translate(0 0)"><path class="e" d="M1411.135,795.779l-.209-.952a1.526,1.526,0,0,0-.749-.992,1.922,1.922,0,0,0-1.328-.218l-6.634,1.263a1.818,1.818,0,0,0-1.129.684,1.444,1.444,0,0,0-.269,1.187l.21.951a5.066,5.066,0,0,0,6.04,3.518,4.727,4.727,0,0,0,4.089-5.288C1411.15,795.878,1411.144,795.828,1411.135,795.779Z" transform="translate(-1400.784 -793.58)"/></g></g><g transform="translate(64.489 25.895)"><path class="e" d="M1572.888,603.977a3.416,3.416,0,0,0-4.728.967" transform="translate(-1568.16 -603.413)"/></g><g transform="translate(52.885 28.285)"><g transform="translate(0)"><path class="e" d="M1296.779,661.937a3.417,3.417,0,0,0-4.729.967" transform="translate(-1292.05 -661.373)"/></g></g><path class="e" d="M15.847,8.215,33.7,12.372a3.876,3.876,0,0,1,3.386,4.766l-2.821,11.3-1.775,1.316,1.254-4.067c.267-2.145-.4-3.843-2.6-4.261L5.421,18.247C3.069,17.956,1.089,15.106.6,11.315.135,7.666,1.181,2.815,5.489.5c1.839,2.655,3.867,5.444,7.863,7.037A11.561,11.561,0,0,0,15.847,8.215Z" transform="translate(0)"/><path class="a" d="M1050.588,286.609s10.954,5.87,22.061,3.761c0,0-.514-7.578-5.674-11.7l-25.525,6.691.8,10.3,3,2.6-.871-3.892S1047.083,295.7,1050.588,286.609Z" transform="translate(-999.214 -267.017)"/><path class="b" d="M1048.9,276.123l3.5,2.956-.871-3.892s2.705,1.329,6.21-7.757c0,0,10.954,5.87,22.061,3.761,0,0-1.423-8.379-6.582-12.5" transform="translate(-1006.365 -247.838)"/><path class="d" d="M1586.07,167.7" transform="translate(-1521.997 -160.496)"/><path class="d" d="M1336.71,370.68" transform="translate(-1282.635 -355.338)"/><path class="d" d="M1336.71,370.68" transform="translate(-1282.635 -355.338)"/><path class="d" d="M1605.33,670.9" transform="translate(-1540.485 -643.521)"/></g></svg>