<svg xmlns="http://www.w3.org/2000/svg" width="68.698" height="27.177" viewBox="0 0 68.698 27.177"><defs><style>.a{fill:#fff;}.a,.b,.c,.d{stroke:#595959;}.b{fill:#d4f9f5;}.b,.c,.d{stroke-miterlimit:10;}.c,.d,.e{fill:none;}.d,.e{stroke-linecap:round;}.e{stroke:#00baa4;}</style></defs><g transform="translate(-1035 -855.823)"><path class="a" d="M13.588.5H55.11A13.086,13.086,0,0,1,68.2,13.588h0A13.086,13.086,0,0,1,55.11,26.677H13.588A13.086,13.086,0,0,1,.5,13.588h0A13.086,13.086,0,0,1,13.588.5Z" transform="translate(1035 855.823)"/><g transform="translate(1085.208 862.191)"><path class="b" d="M59.661,13.97a5.091,5.091,0,1,0,5.091,5.091h0A5.085,5.085,0,0,0,59.661,13.97Z" transform="translate(-54.57 -9.484)"/><path class="c" d="M63.351,12.067V9.52a3.52,3.52,0,1,0-7.041,0v2.537" transform="translate(-54.739 -6)"/><line class="d" y2="2.166" transform="translate(4.983 9.216)"/><circle class="d" cx="1.155" cy="1.155" r="1.155" transform="translate(3.827 7.528)"/></g><g transform="translate(1045 866.018)"><line class="e" y2="6.329" transform="translate(3.09 0)"/><line class="e" x1="6.17" y2="3.428" transform="translate(0 1.463)"/><line class="e" x2="6.17" y2="3.428" transform="translate(0 1.453)"/></g><g transform="translate(1059 866.018)"><line class="e" y2="6.329" transform="translate(3.09 0)"/><line class="e" x1="6.17" y2="3.428" transform="translate(0 1.463)"/><line class="e" x2="6.17" y2="3.428" transform="translate(0 1.453)"/></g><g transform="translate(1073 866.018)"><line class="e" y2="6.329" transform="translate(3.09 0)"/><line class="e" x1="6.17" y2="3.428" transform="translate(0 1.463)"/><line class="e" x2="6.17" y2="3.428" transform="translate(0 1.453)"/></g></g></svg>