<svg xmlns="http://www.w3.org/2000/svg" width="35.429" height="40.828" viewBox="0 0 35.429 40.828"><defs><style>.a{fill:#fff;}.a,.b,.c{stroke:#595959;fill-rule:evenodd;}.a,.b,.c,.d{stroke-linecap:round;stroke-linejoin:round;}.b{fill:#d4f9f5;}.c,.d{fill:none;}.d{stroke:#00baa4;stroke-miterlimit:10;}</style></defs><g transform="translate(-2695.862 4176.157)"><g transform="translate(2696.362 -4175.657)"><g transform="translate(0 0)"><path class="a" d="M2.3,10.329H1.148A1.152,1.152,0,0,1,0,9.181V1.148A1.152,1.152,0,0,1,1.148,0H33.281a1.151,1.151,0,0,1,1.148,1.148V9.181a1.151,1.151,0,0,1-1.148,1.148H32.134" transform="translate(0 0)"/><g transform="translate(27.543 5.832) rotate(90)"><path class="b" d="M0,20.836H34V0H0Z"/><path class="c" d="M5.738,0H2.9V2.449H0V13.272H2.869l.026,2.8H5.738" transform="translate(30.642 18.619) rotate(180)"/><path class="c" d="M5.738,0H2.9V2.449H0" transform="translate(0.803 2.552)"/><path class="c" d="M0,0H2.869L2.9,2.8H5.738" transform="translate(0.803 15.824)"/><g transform="translate(17.604 16.967) rotate(180)"><path class="d" d="M0,6.929A2.311,2.311,0,1,0,2.311,4.618v0A2.311,2.311,0,1,1,4.622,2.311" transform="translate(0 1.623)"/><line class="d" y1="1.623" transform="translate(2.311 10.863)"/><line class="d" y1="1.623" transform="translate(2.311)"/></g></g></g></g></g></svg>