<svg xmlns="http://www.w3.org/2000/svg" width="28.047" height="31" viewBox="0 0 28.047 31"><defs><style>.a{fill:#fff;}.a,.b,.c,.d{stroke:#595959;fill-rule:evenodd;}.a,.b,.c,.d,.e{stroke-linecap:round;}.a,.b,.e{stroke-linejoin:round;}.b{fill:#d4f9f5;}.c,.d,.e{fill:none;}.d{stroke-dasharray:0 2.5;}.e{stroke:#00baa4;stroke-miterlimit:10;}</style></defs><g transform="translate(0.5 0.5)"><g transform="translate(0 0)"><g transform="translate(0 0)"><path class="a" d="M1.622,6.429H.811A.77.77,0,0,1,0,5.714v-5A.77.77,0,0,1,.811,0h22.7a.769.769,0,0,1,.811.714v5a.769.769,0,0,1-.811.714H22.7" transform="translate(24.325 6.429) rotate(180)"/><path class="b" d="M7.524,4.619Q6.9,1.762,5.024,1.762t-2.5,2.857Z" transform="translate(-0.477 -0.333)"/><path class="a" d="M5.167,1.762H24.261q3.763-.027,3.763,4V30.333l-1.185-.79-1.324.79-1.672-.79-1.812.79-1.812-.79-1.951.79-1.812-.79-1.951.79-1.812-.79-1.812.79-1.812-.79-1.115.79V5.762Q7.954,2.254,5.167,1.762Z" transform="translate(-0.977 -0.333)"/><path class="c" d="M7.37,0H0" transform="translate(4.219 13.079) rotate(90)"/><path class="c" d="M1.474,0H0" transform="translate(4.219 9.375) rotate(90)"/><path class="c" d="M27.047,33.036H13.213" transform="translate(-2.5 -6.25)"/><path class="c" d="M27.047,31.274H13.213" transform="translate(-2.5 -7.028)"/><path class="d" d="M25.444,5.726H10.452" transform="translate(-1.354 -1.125)"/><g transform="translate(15.857 8.435)"><path class="e" d="M5,30.494a2,2,0,1,0,2-2v0a2,2,0,1,1,2-2" transform="translate(-5 -23.108)"/><line class="e" y1="1.402" transform="translate(1.996 9.382)"/><line class="e" y1="1.402" transform="translate(1.996 0)"/></g></g></g></g></svg>