<svg xmlns="http://www.w3.org/2000/svg" width="45.217" height="44.454" viewBox="0 0 45.217 44.454"><defs><style>.a,.g{fill:#d4f9f5;}.b,.c,.d,.f{fill:none;}.b{stroke:#00baa4;}.b,.c,.e,.g{stroke-linecap:round;stroke-linejoin:round;}.b,.d,.e,.f,.g,.h{stroke-miterlimit:10;}.c,.f,.g,.h{stroke:#595959;}.d,.e{stroke:#fff;stroke-width:5px;}.e,.h{fill:#fff;}</style></defs><g transform="translate(-352.5 -6598.036)"><circle class="a" cx="15.133" cy="15.133" r="15.133" transform="translate(361.262 6604.562)"/><g transform="translate(373.89 6614.654)"><path class="b" d="M5,30.485a1.993,1.993,0,1,0,1.993-1.993v0A1.993,1.993,0,1,1,8.986,26.5" transform="translate(-5 -23.11)"/><line class="b" y1="1.4" transform="translate(1.993 9.368)"/><line class="b" y1="1.4" transform="translate(1.993 0)"/></g><path class="c" d="M17.944,0a14.657,14.657,0,0,1-.062,6.569A14.929,14.929,0,0,1,0,17.791" transform="translate(376.239 6615.973) rotate(47)"/><path class="c" d="M15.749,0a15.382,15.382,0,0,1-.377,4.282A15.037,15.037,0,0,1,0,15.851" transform="translate(375.652 6621.098) rotate(-133)"/><path class="c" d="M0,0V2.142H2.427" transform="matrix(-0.985, 0.174, -0.174, -0.985, 388.981, 6631.057)"/><path class="c" d="M0,0V2.142H2.427" transform="matrix(0.985, -0.174, 0.174, 0.985, 363.834, 6608.205)"/><g transform="translate(355 6612.227)"><circle class="d" cx="3.212" cy="3.212" r="3.212" transform="translate(2.281)"/><path class="e" d="M0,2.87S2.6,0,5.493,0s5.571,2.87,5.571,2.87A11.181,11.181,0,0,1,5.493,4.819,10.748,10.748,0,0,1,0,2.87Z" transform="translate(0 8.834)"/></g><g transform="translate(384.152 6612.227)"><circle class="d" cx="3.212" cy="3.212" r="3.212" transform="translate(2.281)"/><path class="e" d="M0,2.87S2.6,0,5.493,0s5.571,2.87,5.571,2.87A11.181,11.181,0,0,1,5.493,4.819,10.748,10.748,0,0,1,0,2.87Z" transform="translate(0 8.834)"/></g><g transform="translate(355 6612.227)"><circle class="f" cx="3.212" cy="3.212" r="3.212" transform="translate(2.281)"/><path class="g" d="M0,2.87S2.6,0,5.493,0s5.571,2.87,5.571,2.87A11.181,11.181,0,0,1,5.493,4.819,10.748,10.748,0,0,1,0,2.87Z" transform="translate(0 8.834)"/></g><g transform="translate(384.152 6612.227)"><circle class="h" cx="3.212" cy="3.212" r="3.212" transform="translate(2.281)"/><path class="g" d="M0,2.87S2.6,0,5.493,0s5.571,2.87,5.571,2.87A11.181,11.181,0,0,1,5.493,4.819,10.748,10.748,0,0,1,0,2.87Z" transform="translate(0 8.834)"/></g></g></svg>