<svg xmlns="http://www.w3.org/2000/svg" width="22.874" height="26.808" viewBox="0 0 22.874 26.808"><defs><style>.a{fill:#d4f9f5;}.b,.c{fill:none;stroke:#595959;stroke-miterlimit:10;}.b{stroke-linecap:round;}</style></defs><g transform="translate(-872.417 -139.464)"><path class="a" d="M452.66,1229.866h-5.235l-.651-.609,3.485-21.372a1.491,1.491,0,0,1,1.493-.982c1.2.011,8.86.112,8.86.112s5.712-.133,6.25,4.75-3.748,8.059-3.748,8.059a10.8,10.8,0,0,1-3.729,1.343c-1.719.151-4.2.141-4.2.141l-.863.124-.452.52-.193.714-.582,4.1" transform="translate(426 -1067)"/><g transform="translate(872.918 139.964)"><g transform="translate(0 0)"><path class="b" d="M8.814,13.725l.9-5.633a1,1,0,0,1,.991-.846H17a13.4,13.4,0,0,1,2.074.15c.181.029.357.063.528.1s.339.081.5.129c.081.024.16.047.237.074a5.545,5.545,0,0,1,.87.368,5.125,5.125,0,0,0-1.088-4.611C18.921,2.094,16.763,1.51,14,1.51H5.98a1.145,1.145,0,0,0-1.133.97L1.506,23.656a.69.69,0,0,0,.681.8H5.654" transform="translate(-1.498 -1.51)"/><path class="c" d="M36.042,26.44h0c-.024.152-.05.31-.081.471-1.057,5.431-4.676,7.308-9.3,7.308H24.308a1.144,1.144,0,0,0-1.13.97h0l-1.207,7.641L21.629,45a.6.6,0,0,0,.594.7H26.4a1,1,0,0,0,.991-.846l.042-.213.786-4.986.05-.276a1,1,0,0,1,.991-.846h.626c4.043,0,7.21-1.643,8.136-6.393.386-1.985.187-3.643-.836-4.808A3.977,3.977,0,0,0,36.042,26.44Z" transform="translate(-16.332 -19.887)"/></g></g></g></svg>