<svg width="30" height="30" viewBox="0 0 30 30" fill="none" xmlns="http://www.w3.org/2000/svg">
<path d="M14.5116 29.5553H3.34561C2.82792 29.5553 2.4082 29.1356 2.4082 28.6178V27.8141C2.4082 24.213 5.32746 21.2937 8.92859 21.2937C12.5297 21.2937 15.449 24.213 15.449 27.8141V28.6178C15.449 29.1356 15.0293 29.5553 14.5116 29.5553Z" fill="white"/>
<path d="M8.92831 21.2937C8.62654 21.2937 8.32968 21.3147 8.03882 21.3544C11.219 21.7883 13.6697 24.5148 13.6697 27.8141V28.6178C13.6697 29.1355 13.2501 29.5553 12.7323 29.5553H14.5113C15.029 29.5553 15.4487 29.1356 15.4487 28.6178V27.8141C15.4487 24.213 12.5294 21.2937 8.92831 21.2937Z" fill="white"/>
<path d="M23.6065 0.444748C20.659 0.444748 18.2696 2.83416 18.2696 5.7817C18.2696 6.86373 18.5919 7.87034 19.1453 8.71139L18.2895 10.451C18.1761 10.8743 18.5634 11.2616 18.9867 11.1482L20.7414 10.285C21.5692 10.8128 22.5521 11.1186 23.6065 11.1186C26.554 11.1186 28.9435 8.72923 28.9435 5.7817C28.9435 2.83416 26.554 0.444748 23.6065 0.444748Z" fill="white"/>
<path d="M23.6068 0.444748C23.3036 0.444748 23.0066 0.470425 22.7173 0.518932C25.2414 0.942448 27.1647 3.13724 27.1647 5.7817C27.1647 8.42562 25.242 10.6201 22.7186 11.0442C23.0076 11.0927 23.3041 11.1186 23.6068 11.1186C26.5543 11.1186 28.9437 8.72923 28.9437 5.7817C28.9437 2.83416 26.5543 0.444748 23.6068 0.444748Z" fill="white"/>
<path d="M25.1805 4.88871C24.7781 5.12209 24.7707 5.2849 24.7707 5.56715C24.7707 5.6703 24.6976 5.78969 24.339 5.78969C24.039 5.78969 23.9366 5.70828 23.9366 5.42603C23.9366 4.95927 24.2146 4.73674 24.4269 4.60106C24.6683 4.44909 25.0781 4.28083 25.0781 3.98774C25.0781 3.73807 24.7854 3.61868 24.4195 3.61868C23.6732 3.61868 23.8341 4.03661 23.439 4.03661C23.2415 4.03661 23 3.93891 23 3.72727C23 3.43417 23.4537 3 24.4415 3C25.3781 3 26 3.38535 26 3.89553C26 4.40571 25.3781 4.77472 25.1805 4.88871ZM24.9098 6.58207C24.9098 6.8046 24.661 7 24.3464 7C24.0317 7 23.7903 6.8046 23.7903 6.58207C23.7903 6.35414 24.0391 6.16414 24.3464 6.16414C24.6536 6.16414 24.9098 6.35414 24.9098 6.58207Z" fill="#00BAA4"/>
<path d="M8.92574 23.1279C8.22126 23.1279 7.65015 22.5567 7.65015 21.8523V20.6008C7.65015 19.8963 8.22126 19.3252 8.92574 19.3252C9.63022 19.3252 10.2013 19.8963 10.2013 20.6008V21.8523C10.2013 22.5567 9.63022 23.1279 8.92574 23.1279Z" fill="white"/>
<path d="M15.7651 16.3717C16.6714 15.9666 17.0778 14.9035 16.6728 13.9972C16.2678 13.0908 15.2047 12.6844 14.2983 13.0895C13.392 13.4945 12.9856 14.5576 13.3906 15.4639C13.7956 16.3703 14.8587 16.7767 15.7651 16.3717Z" fill="white"/>
<path d="M3.54727 16.3871C4.46455 16.0069 4.89992 14.9551 4.51971 14.0378C4.1395 13.1205 3.08767 12.6851 2.1704 13.0653C1.25312 13.4456 0.817745 14.4974 1.19796 15.4147C1.57817 16.3319 2.62999 16.7673 3.54727 16.3871Z" fill="white"/>
<path d="M8.82047 21.3578C5.55628 21.3578 2.91016 18.7117 2.91016 15.4475L2.9372 11.4861C2.95054 9.53339 4.53727 7.9575 6.48995 7.9575H11.2047C13.1764 7.9575 14.7709 9.56298 14.7575 11.5346L14.7307 15.4476C14.7308 18.7117 12.0847 21.3578 8.82047 21.3578Z" fill="white"/>
<path d="M11.2045 7.95746H9.42548C11.3971 7.95746 12.9917 9.56293 12.9782 11.5346L12.9515 15.4475C12.9515 18.4093 10.7728 20.8622 7.93066 21.2912C8.22082 21.3349 8.51779 21.3578 8.82015 21.3578C12.0843 21.3578 14.7305 18.7116 14.7305 15.4475L14.7572 11.5345C14.7707 9.56299 13.1762 7.95746 11.2045 7.95746Z" fill="white"/>
<path d="M13.9969 7.3776L14.0001 6.91032C14.0001 3.64612 11.354 1 8.08979 1C4.82559 1 2.17947 3.64612 2.17947 6.91032L2.17627 7.3776L2.46802 7.21832C3.7241 6.53258 5.2108 6.40728 6.56395 6.87302C7.49964 7.19507 8.52659 7.11757 9.40333 6.65877C10.8254 5.91462 12.5585 6.12027 13.7669 7.17651L13.9969 7.3776Z" fill="#D4F9F5"/>
<path d="M24.6778 1.00305C22.1159 0.915225 20 2.73442 20 4.98282C20 5.70389 20.2179 6.40401 20.632 7.01892L20.0361 8.09106L20.0327 8.10229C19.9592 8.34477 20.0261 8.60825 20.2241 8.78807C20.3762 8.92614 20.5771 9 20.7861 9C20.855 9 20.9247 8.99195 20.9939 8.97557L21.0266 8.96781L22.2526 8.43403C22.9343 8.78231 23.7071 8.96565 24.5 8.96565C27.0404 8.96565 29.0958 7.09294 28.9966 4.82542C28.9061 2.75832 27.0134 1.08312 24.6778 1.00305ZM24.5 8.3529C23.773 8.3529 23.0662 8.17092 22.4561 7.82668C22.3541 7.76916 22.2257 7.76287 22.1172 7.81009L20.7925 8.38689C20.7594 8.3884 20.736 8.37468 20.7212 8.36148C20.7063 8.34833 20.6908 8.32741 20.6925 8.29833L21.3388 7.13551C21.3927 7.03853 21.3846 6.92354 21.3175 6.83326L21.317 6.83261C20.8618 6.22044 20.6456 5.49658 20.7008 4.75655C20.8295 3.0276 22.4479 1.65619 24.405 1.61379C26.5478 1.56735 28.3077 3.09663 28.3077 4.98286C28.3077 6.8411 26.5995 8.3529 24.5 8.3529Z" fill="#595959"/>
<path d="M14.584 8.01257L14.5788 7.35506C14.5788 3.85088 11.7279 1 8.2237 1C7.10929 1 6.01266 1.29276 5.05255 1.84662C4.83978 1.96937 4.76678 2.24132 4.88953 2.45408C5.01222 2.66685 5.28429 2.73979 5.497 2.6171C6.32221 2.1411 7.26507 1.88949 8.2237 1.88949C11.0827 1.88949 13.4361 4.09602 13.6702 6.893C12.3724 6.06062 10.7319 5.97647 9.33106 6.70947C8.56604 7.1098 7.659 7.17823 6.84262 6.89721C5.50761 6.43764 4.04387 6.50927 2.76472 7.08572C2.82835 5.77533 3.35564 4.5413 4.26559 3.58599C4.435 3.40815 4.42812 3.1266 4.25029 2.95718C4.07239 2.78782 3.79089 2.79464 3.62148 2.97248C2.49117 4.15912 1.86864 5.71555 1.86864 7.35192L1.87362 8.03683C0.812106 8.21324 0 9.13743 0 10.2482C0 11.4148 0.895659 12.3758 2.03539 12.4806C2.51993 14.4609 3.93475 16.0798 5.78869 16.8462C5.04348 17.137 4.34878 17.5556 3.74102 18.0856C3.55589 18.247 3.53668 18.528 3.69809 18.7131C3.78603 18.814 3.90943 18.8656 4.03349 18.8656C4.1372 18.8656 4.24133 18.8295 4.3256 18.756C4.98643 18.1798 5.76479 17.7543 6.59943 17.5083C6.66769 18.3948 7.41035 19.0955 8.31408 19.0955C9.21863 19.0955 9.96183 18.3936 10.0289 17.5059C12.587 18.2551 14.3923 20.6265 14.3923 23.337V24.1408C14.3923 24.4124 14.1713 24.6334 13.8997 24.6334H12.2297V23.417C12.2297 23.1714 12.0305 22.9722 11.7849 22.9722C11.5393 22.9722 11.3402 23.1714 11.3402 23.417V24.6334H5.81882V23.417C5.81882 23.1714 5.61969 22.9722 5.37407 22.9722C5.12845 22.9722 4.92932 23.1714 4.92932 23.417V24.6334H2.73376C2.46211 24.6334 2.2411 24.4124 2.2411 24.1408V23.337C2.2411 22.1405 2.58842 20.983 3.24552 19.9896C3.38102 19.7848 3.3248 19.5088 3.11998 19.3733C2.91504 19.2378 2.63918 19.294 2.50362 19.4989C1.74999 20.6382 1.35155 21.9654 1.35155 23.337V24.1408C1.35155 24.9029 1.97159 25.5229 2.7337 25.5229H13.8997C14.6618 25.5229 15.2819 24.9029 15.2819 24.1408V23.337C15.2819 20.3925 13.423 17.7972 10.7323 16.8024C12.5333 16.0201 13.9036 14.4276 14.3805 12.4884C14.394 12.4896 14.4077 12.4905 14.4216 12.4905C15.658 12.4905 16.6639 11.4846 16.6639 10.2482C16.6639 9.06656 15.7448 8.09607 14.584 8.01257ZM0.889491 10.2483C0.889491 9.63246 1.30334 9.11175 1.8674 8.9488L1.85364 10.9704C1.85364 11.1664 1.86301 11.3601 1.8805 11.5515C1.30975 11.3928 0.889491 10.8689 0.889491 10.2483ZM8.31419 18.206C7.85605 18.206 7.48335 17.8333 7.48335 17.3752V17.2838C7.7215 17.311 7.96344 17.3254 8.2087 17.3254C8.52678 17.3254 8.83935 17.3017 9.14498 17.2563V17.3751C9.14498 17.8333 8.77228 18.206 8.31419 18.206ZM8.2087 16.436C5.19499 16.436 2.74313 13.9841 2.74313 10.9735L2.76288 8.0819L2.815 8.05343C3.95859 7.42907 5.32106 7.31421 6.55312 7.73831C7.59981 8.09862 8.76268 8.01086 9.74349 7.49762C11.0126 6.83352 12.5296 7.01344 13.6082 7.95618L13.6943 8.03149L13.6743 10.9705C13.6743 13.9841 11.2224 16.436 8.2087 16.436ZM14.5332 11.5961C14.5532 11.3912 14.5638 11.1836 14.5638 10.9735L14.5779 8.90485C15.2504 8.9826 15.7744 9.55525 15.7744 10.2483C15.7744 10.9566 15.2271 11.5391 14.5332 11.5961Z" fill="#595959"/>
<path d="M5.41569 10.8781C5.17007 10.8781 4.97095 11.0772 4.97095 11.3228V11.7461C4.97095 11.9918 5.17007 12.1909 5.41569 12.1909C5.66131 12.1909 5.86044 11.9918 5.86044 11.7461V11.3228C5.86044 11.0772 5.66131 10.8781 5.41569 10.8781Z" fill="#595959"/>
<path d="M10.7582 10.8781C10.5126 10.8781 10.3135 11.0772 10.3135 11.3228V11.7461C10.3135 11.9918 10.5126 12.1909 10.7582 12.1909C11.0038 12.1909 11.203 11.9918 11.203 11.7461V11.3228C11.203 11.0772 11.0038 10.8781 10.7582 10.8781Z" fill="#595959"/>
<path d="M8.4967 12.72C8.05871 12.72 7.65471 12.9582 7.4423 13.3415C7.32322 13.5563 7.40091 13.827 7.61575 13.946C7.68406 13.9839 7.75795 14.0018 7.83088 14.0018C7.98732 14.0018 8.13912 13.9191 8.2203 13.7726C8.27604 13.6719 8.38195 13.6095 8.4967 13.6095C8.61109 13.6095 8.71688 13.6718 8.77268 13.7719C8.89222 13.9865 9.16304 14.0635 9.37765 13.9439C9.59219 13.8243 9.66922 13.5535 9.54962 13.3389C9.33691 12.9572 8.93344 12.72 8.4967 12.72Z" fill="#595959"/>
<path d="M5.98407 8.5878C5.44563 8.35522 4.82892 8.40509 4.33418 8.72134C4.12723 8.85364 4.06668 9.12867 4.19898 9.33563C4.28384 9.4684 4.42746 9.54086 4.57416 9.54086C4.65612 9.54086 4.73908 9.51821 4.81326 9.47077C5.0587 9.31386 5.36451 9.28908 5.63124 9.40435C5.85675 9.50172 6.1185 9.39795 6.21587 9.17249C6.31336 8.94697 6.20952 8.68523 5.98407 8.5878Z" fill="#595959"/>
<path d="M11.8053 9.50413C11.5201 9.56366 11.2255 9.47827 11.017 9.27577C10.8409 9.10469 10.5593 9.10872 10.3882 9.28496C10.217 9.46113 10.2211 9.74269 10.3973 9.91383C10.7299 10.2369 11.171 10.4122 11.6252 10.4122C11.7455 10.4122 11.8668 10.3999 11.9872 10.3748C12.2276 10.3246 12.3819 10.089 12.3317 9.84854C12.2814 9.60814 12.0457 9.45408 11.8053 9.50413Z" fill="#595959"/>
</svg>
