<svg width="26" height="23" viewBox="0 0 26 23" fill="none" xmlns="http://www.w3.org/2000/svg">
<g clip-path="url(#clip0)">
<path d="M0.159299 11.0715L9.9093 0.176725C10.0109 0.0632552 10.1486 -0.000488281 10.2923 -0.000488281C10.4359 -0.000488281 10.5736 0.0632552 10.6752 0.176725C10.7768 0.290228 10.8338 0.444152 10.8338 0.604646C10.8338 0.76514 10.7768 0.919063 10.6752 1.03257L1.85038 10.8947L22.2095 10.8947C22.3531 10.8947 22.4909 10.9585 22.5925 11.072C22.6941 11.1855 22.7511 11.3395 22.7511 11.5C22.7511 11.6605 22.6941 11.8145 22.5925 11.928C22.4909 12.0415 22.3531 12.1052 22.2095 12.1052L1.85038 12.1052L10.6752 21.9662C10.7768 22.0797 10.8338 22.2336 10.8338 22.3941C10.8338 22.5546 10.7768 22.7085 10.6752 22.822C10.5739 22.9356 10.4363 22.9996 10.2928 23C10.2215 23 10.151 22.9842 10.0852 22.9537C10.0194 22.9232 9.95961 22.8784 9.9093 22.822L0.159299 11.9273C0.109058 11.8708 0.0692979 11.8037 0.0422994 11.73C-0.0124722 11.5819 -0.0124722 11.4156 0.0422994 11.2676C0.0691413 11.1941 0.10893 11.1274 0.159299 11.0715Z" fill="white"/>
</g>
<defs>
<clipPath id="clip0">
<rect width="26" height="23" fill="white"/>
</clipPath>
</defs>
</svg>
