<svg width="26" height="23" viewBox="0 0 26 23" fill="#333" xmlns="http://www.w3.org/2000/svg">
<g clip-path="url(#clip0)">
<path d="M0.159055 11.0715L9.90906 0.176725C10.0106 0.0632552 10.1484 -0.000488281 10.292 -0.000488281C10.4356 -0.000488281 10.5734 0.0632552 10.675 0.176725C10.7765 0.290228 10.8336 0.444152 10.8336 0.604646C10.8336 0.76514 10.7765 0.919063 10.675 1.03257L1.85014 10.8947L22.2092 10.8947C22.3529 10.8947 22.4907 10.9585 22.5922 11.072C22.6938 11.1855 22.7509 11.3395 22.7509 11.5C22.7509 11.6605 22.6938 11.8145 22.5922 11.928C22.4907 12.0415 22.3529 12.1052 22.2092 12.1052L1.85014 12.1052L10.675 21.9662C10.7765 22.0797 10.8336 22.2336 10.8336 22.3941C10.8336 22.5546 10.7765 22.7085 10.675 22.822C10.5736 22.9356 10.4361 22.9996 10.2926 23C10.2213 23 10.1507 22.9842 10.0849 22.9537C10.0191 22.9232 9.95936 22.8784 9.90906 22.822L0.159055 11.9273C0.108814 11.8708 0.0690538 11.8037 0.0420553 11.73C-0.0127164 11.5819 -0.0127164 11.4156 0.0420553 11.2676C0.0688972 11.1941 0.108685 11.1274 0.159055 11.0715Z" fill="#595959"/>
</g>
<defs>
<clipPath id="clip0">
<rect width="26" height="23" fill="white"/>
</clipPath>
</defs>
</svg>
