<svg xmlns="http://www.w3.org/2000/svg" xmlns:xlink="http://www.w3.org/1999/xlink" width="24" height="19" viewBox="0 0 24 19"><defs><style>.a{fill:none;}.b{clip-path:url(#a);}.c{clip-path:url(#b);}.d{fill:#595959;}</style><clipPath id="a"><rect class="a" width="24" height="19"/></clipPath><clipPath id="b"><path class="a" d="M0,0H-24V19H0Z" transform="rotate(180)"/></clipPath></defs><g class="b"><g transform="translate(24) rotate(180)"><path class="a" d="M0,0H-24V19H0Z" transform="rotate(180)"/><g class="c"><path class="d" d="M-20.854,9.146l9-9a.5.5,0,0,1,.707,0,.5.5,0,0,1,0,.707L-19.293,9H-.5a.5.5,0,0,1,.5.5.5.5,0,0,1-.5.5H-19.293l8.146,8.146a.5.5,0,0,1,0,.707A.5.5,0,0,1-11.5,19a.5.5,0,0,1-.354-.147l-9-9a.5.5,0,0,1-.108-.163.5.5,0,0,1,0-.382A.489.489,0,0,1-20.854,9.146Z" transform="translate(2.999 0) rotate(180)"/></g></g></g></svg>