<svg xmlns="http://www.w3.org/2000/svg" width="24.003" height="16.802" viewBox="0 0 24.003 16.802"><defs><style>.a{fill:#00baa4;}.a,.b{fill-rule:evenodd;}.b{fill:#d4f9f5;}</style></defs><g transform="translate(-42.003 2.198)"><g transform="translate(42.003 -2.198)"><g transform="translate(0 0)"><path class="a" d="M23,7.351v7.876a.514.514,0,0,1-.5.525H1.5a.514.514,0,0,1-.5-.525V7.351ZM1,1.575a.514.514,0,0,1,.5-.525h21a.514.514,0,0,1,.5.525V3.15H1ZM1,6.3H23V4.2H1Zm.5,10.5h21A1.541,1.541,0,0,0,24,15.226V1.575A1.541,1.541,0,0,0,22.5,0H1.5A1.541,1.541,0,0,0,0,1.575V15.226A1.541,1.541,0,0,0,1.5,16.8Z" transform="translate(0 0)"/></g><path class="b" d="M13.5,11.2h5a.61.61,0,0,0,0-1.2h-5a.61.61,0,0,0,0,1.2" transform="translate(2.602 2.001)"/></g></g></svg>