<svg xmlns="http://www.w3.org/2000/svg" width="37.768" height="24.262" viewBox="0 0 37.768 24.262"><defs><style>.a{fill:#fff;}.a,.b,.f{stroke:#595959;}.a,.b{fill-rule:evenodd;}.b,.d{fill:#d4f9f5;}.c,.e,.f{fill:none;stroke-linecap:round;}.c,.e{stroke:#00baa4;}.c,.f{stroke-linejoin:round;}.c{stroke-miterlimit:10;}</style></defs><g transform="translate(0.585 0.598)"><g transform="translate(8.63 0.721)"><g transform="translate(0 0)"><g transform="translate(0 0)"><g transform="translate(0 7.181)"><path class="a" d="M15.043,7.591V20H37.656A1.807,1.807,0,0,0,39.464,18.2V7.591Z" transform="translate(-15.043 -4.743)"/><path class="b" d="M67.775.688c0,.1,0,.119,0,.3,0,.358,0,.757,0,1.188,0,1.23-.006,2.462-.008,3.615,0,2.55,0,4.512,0,5.129a3.345,3.345,0,0,1,3.261.705V1.4A2.964,2.964,0,0,0,67.775.688Z" transform="translate(-46.588 -0.499)"/><g transform="translate(9.868 4.943)"><path class="c" d="M5,28.546A1.346,1.346,0,1,0,6.346,27.2v0a1.346,1.346,0,1,1,1.346-1.346" transform="translate(-5 -23.565)"/><line class="c" y1="0.945" transform="translate(1.346 6.327)"/><line class="c" y1="0.945" transform="translate(1.346 0)"/></g></g><g transform="translate(3.559)"><path class="a" d="M13.905,7.591V20H36.574A1.807,1.807,0,0,0,38.381,18.2V7.591Z" transform="translate(-13.905 -4.743)"/><path class="b" d="M66.754.688c0,.1,0,.119,0,.3,0,.358,0,.757,0,1.188,0,1.23-.006,2.462-.008,3.615,0,2.55,0,4.512,0,5.129a3.357,3.357,0,0,1,3.269.706V1.4A2.975,2.975,0,0,0,66.754.688Z" transform="translate(-45.52 -0.499)"/><g transform="translate(10.639 5.195)"><path class="c" d="M5,28.546A1.346,1.346,0,1,0,6.346,27.2v0a1.346,1.346,0,1,1,1.346-1.346" transform="translate(-5 -23.565)"/><line class="c" y1="0.945" transform="translate(1.346 6.327)"/><line class="c" y1="0.945" transform="translate(1.346 0)"/></g></g></g></g></g><g transform="translate(0 0)"><circle class="d" cx="7.81" cy="7.81" r="7.81" transform="translate(1.356 1.525)"/><g transform="translate(6.361 6.53)"><line class="e" y2="5.61" transform="translate(2.805 0)"/><line class="e" x2="5.61" transform="translate(0 2.805)"/></g><path class="f" d="M.234,9.881A7.957,7.957,0,1,1,2.879,14.1" transform="translate(0 2.766) rotate(-10)"/></g></g></svg>