<svg xmlns="http://www.w3.org/2000/svg" width="20.579" height="20.579" viewBox="0 0 20.579 20.579"><defs><style>.a{fill:#d4f9f5;}.b{fill:#00baa4;fill-rule:evenodd;}</style></defs><g transform="translate(-853 -279)"><g transform="translate(853 279)"><g transform="translate(0 0)"><g transform="translate(0.857 0)"><path class="a" d="M2.5,0H4A0,0,0,0,1,4,0V5A0,0,0,0,1,4,5H2.5A2.5,2.5,0,0,1,0,2.5v0A2.5,2.5,0,0,1,2.5,0Z" transform="translate(0.142 7.58)"/><path class="a" d="M0,0H.5A2.5,2.5,0,0,1,3,2.5v0A2.5,2.5,0,0,1,.5,5H0A0,0,0,0,1,0,5V0A0,0,0,0,1,0,0Z" transform="translate(16.143 7.58)"/><ellipse class="a" cx="1.5" cy="1" rx="1.5" ry="1" transform="translate(9.142 14.58)"/><path class="b" d="M16.721,12h-.429V7.717h.429a2.144,2.144,0,1,1,0,4.287Zm-5.145,4.287H9.861a.429.429,0,1,1,0-.857h1.715a.429.429,0,1,1,0,.857ZM3.43,12H3A2.144,2.144,0,0,1,3,7.717H3.43ZM16.721,6.86h-.429V5.574C16.292,2.435,12.836,0,9.861,0S3.43,2.435,3.43,5.574V6.86H3a3,3,0,1,0,0,6H4.288V5.574c0-2.656,3-4.716,5.574-4.716s5.574,2.06,5.574,4.716v6.86A3.118,3.118,0,0,1,12.772,15.4a1.287,1.287,0,0,0-1.2-.821H9.861a1.286,1.286,0,0,0,0,2.572h1.715a1.284,1.284,0,0,0,1.219-.9,3.964,3.964,0,0,0,3.45-3.391h.475a3,3,0,1,0,0-6Z" transform="translate(0 0)"/></g><g transform="translate(17.398 15.846)"><path class="b" d="M.969.561a.429.429,0,0,0-.5.7,6.429,6.429,0,0,1,.8.678A4.023,4.023,0,0,1,2.614,4.785a.429.429,0,0,0,.857,0,4.858,4.858,0,0,0-1.6-3.459,7.382,7.382,0,0,0-.9-.765" transform="translate(-0.29 -0.48)"/></g><g transform="translate(0 14.156)"><path class="b" d="M.858,6.5c0-2.234,2.356-4.3,5.863-5.148a.429.429,0,0,0-.2-.833C2.559,1.477,0,3.825,0,6.5a.429.429,0,1,0,.857,0" transform="translate(0 -0.509)"/></g></g></g></g></svg>