<svg width="15" height="15" viewBox="0 0 15 15" fill="none" xmlns="http://www.w3.org/2000/svg">
<path d="M7.5 0C3.35478 0 0 3.3544 0 7.5C0 11.6452 3.3544 15 7.5 15C11.6452 15 15 11.6456 15 7.5C15 3.35478 11.6456 0 7.5 0ZM7.5 14C3.91591 14 0.99999 11.0841 0.99999 7.5C0.99999 3.91588 3.91591 0.99999 7.5 0.99999C11.0841 0.99999 14 3.91591 14 7.5C14 11.0841 11.0841 14 7.5 14Z" fill="black" fill-opacity="0.75"/>
<path d="M7.50001 6.14581C7.22389 6.14581 7 6.36967 7 6.64582V10.8637C7 11.1398 7.22386 11.3637 7.50001 11.3637C7.77616 11.3637 8.00002 11.1398 8.00002 10.8637V6.64579C7.99999 6.36964 7.77613 6.14581 7.50001 6.14581Z" fill="black" fill-opacity="0.75"/>
<path d="M7.49999 3.63638C6.94859 3.63638 6.5 4.08498 6.5 4.63638C6.5 5.18777 6.94859 5.63637 7.49999 5.63637C8.05139 5.63637 8.49998 5.18777 8.49998 4.63638C8.49998 4.08498 8.05139 3.63638 7.49999 3.63638Z" fill="black" fill-opacity="0.75"/>
</svg>
