<svg width="36" height="32" viewBox="0 0 36 32" fill="none" xmlns="http://www.w3.org/2000/svg">
<path d="M15.1875 27.2941C15.1875 27.6654 15.5024 27.9664 15.8906 27.9664H20.1094C20.4976 27.9664 20.8125 27.6654 20.8125 27.2941V23.2605C20.8125 22.8892 20.4976 22.5882 20.1094 22.5882H15.8906C15.5024 22.5882 15.1875 22.8892 15.1875 23.2605V27.2941ZM16.5938 23.9328H19.4062V26.6218H16.5938V23.9328Z" fill="#D4F9F5"/>
<path d="M15.8906 19.8992H20.1094C20.4976 19.8992 20.8125 19.5982 20.8125 19.2269V9.14286C20.8125 8.77156 20.4976 8.47059 20.1094 8.47059H15.8906C15.5024 8.47059 15.1875 8.77156 15.1875 9.14286V19.2269C15.1875 19.5982 15.5024 19.8992 15.8906 19.8992ZM16.5938 9.81513H19.4062V18.5546H16.5938V9.81513Z" fill="#D4F9F5"/>
<path d="M18 32C18.3883 32 18.7031 31.699 18.7031 31.3277C18.7031 30.9564 18.3883 30.6555 18 30.6555C17.6117 30.6555 17.2969 30.9564 17.2969 31.3277C17.2969 31.699 17.6117 32 18 32Z" fill="#595959"/>
<path d="M21.4021 1.93882C20.7251 0.742924 19.4215 0 18 0C16.5785 0 15.2749 0.742924 14.6 1.93526L0.465469 26.5433C0.160945 27.08 0 27.6883 0 28.3025C0 30.3413 1.73482 32 3.86719 32H14.8359C15.2242 32 15.5391 31.699 15.5391 31.3277C15.5391 30.9564 15.2242 30.6555 14.8359 30.6555H3.86719C2.51023 30.6555 1.40625 29.5999 1.40625 28.3025C1.40625 27.9116 1.50834 27.525 1.69987 27.1875L15.8347 2.57882C16.2657 1.81748 17.0954 1.34454 18 1.34454C18.9046 1.34454 19.7343 1.81748 20.1673 2.58245L34.2984 27.1845C34.4917 27.525 34.5938 27.9116 34.5938 28.3025C34.5938 29.5999 33.4898 30.6555 32.1328 30.6555H21.1641C20.7758 30.6555 20.4609 30.9564 20.4609 31.3277C20.4609 31.699 20.7758 32 21.1641 32H32.1328C34.2652 32 36 30.3413 36 28.3025C36 27.6883 35.8391 27.08 35.5328 26.5403L21.4021 1.93882Z" fill="#595959"/>
</svg>
