<svg id="Capa_1" enable-background="new 0 0 512 512" height="20" viewBox="0 0 512 512" width="20" xmlns="http://www.w3.org/2000/svg"><g><path style="fill:#ADADAD;" d="m494.413 409.596-120.835-120.846c-7.811-7.81-20.474-7.81-28.284 0l-14.141 14.142-29.407-29.41c22.69-28.774 36.246-65.07 36.246-104.474-.001-93.19-75.812-169.008-168.996-169.008s-168.996 75.818-168.996 169.009 75.811 169.009 168.996 169.009c39.401 0 75.695-13.557 104.466-36.25l29.407 29.41-14.142 14.143c-7.805 7.806-7.81 20.476 0 28.287l120.836 120.846c23.394 23.394 61.457 23.395 84.85 0 23.447-23.45 23.452-61.406 0-84.858zm-325.417-111.58c-71.129 0-128.997-57.872-128.997-129.007s57.868-129.007 128.997-129.007 128.997 57.872 128.997 129.007-57.869 129.007-128.997 129.007zm297.134 168.151c-7.798 7.799-20.486 7.799-28.284 0l-106.694-106.702 28.284-28.286 106.694 106.704c7.816 7.817 7.816 20.467 0 28.284z"/></g></svg>