<svg xmlns="http://www.w3.org/2000/svg" width="21.167" height="24.329" viewBox="0 0 21.167 24.329"><defs><style>.a{fill:#fff;}.a,.b,.c{stroke:#595959;fill-rule:evenodd;}.a,.b,.c,.d{stroke-linecap:round;stroke-linejoin:round;}.b{fill:#d4f9f5;}.c,.d{fill:none;}.d{stroke:#00baa4;stroke-miterlimit:10;}</style></defs><g transform="translate(0.5 0.5)"><g transform="translate(0)"><path class="a" d="M1.344,6.05H.672A.675.675,0,0,1,0,5.378V.672A.675.675,0,0,1,.672,0H19.494a.674.674,0,0,1,.672.672V5.378a.674.674,0,0,1-.672.672h-.672" transform="translate(0 0)"/><g transform="translate(16.133 3.416) rotate(90)"><g transform="translate(0 0)"><path class="b" d="M0,12.2H19.913V0H0Z"/><path class="c" d="M3.361,0H1.7V1.434H0V7.774H1.681L1.7,9.411H3.361" transform="translate(17.948 10.906) rotate(180)"/><path class="c" d="M3.361,0H1.7V1.434H0" transform="translate(0.471 1.495)"/><path class="c" d="M0,0H1.681L1.7,1.637H3.361" transform="translate(0.471 9.269)"/><g transform="translate(10.311 9.939) rotate(180)"><path class="d" d="M0,4.058A1.354,1.354,0,1,0,1.354,2.7v0A1.354,1.354,0,1,1,2.707,1.354" transform="translate(0 0.951)"/><line class="d" y1="0.951" transform="translate(1.354 6.363)"/><line class="d" y1="0.951" transform="translate(1.354 0)"/></g></g></g></g></g></svg>